<svg width="18" height="14" viewBox="0 0 18 14" fill="none" xmlns="http://www.w3.org/2000/svg">
<path d="M2.25 0C1.65326 0 1.08097 0.237053 0.65901 0.65901C0.237053 1.08097 0 1.65326 0 2.25V3.375H18V2.25C18 1.65326 17.7629 1.08097 17.341 0.65901C16.919 0.237053 16.3467 0 15.75 0H2.25Z" fill="#5F5F5F"/>
<path fill-rule="evenodd" clip-rule="evenodd" d="M18 5.625H0V11.25C0 11.8467 0.237053 12.419 0.65901 12.841C1.08097 13.2629 1.65326 13.5 2.25 13.5H15.75C16.3467 13.5 16.919 13.2629 17.341 12.841C17.7629 12.419 18 11.8467 18 11.25V5.625ZM2.25 10.125C2.25 9.82663 2.36853 9.54048 2.5795 9.3295C2.79048 9.11853 3.07663 9 3.375 9H4.5C4.79837 9 5.08452 9.11853 5.2955 9.3295C5.50647 9.54048 5.625 9.82663 5.625 10.125C5.625 10.4234 5.50647 10.7095 5.2955 10.9205C5.08452 11.1315 4.79837 11.25 4.5 11.25H3.375C3.07663 11.25 2.79048 11.1315 2.5795 10.9205C2.36853 10.7095 2.25 10.4234 2.25 10.125ZM7.875 9C7.57663 9 7.29048 9.11853 7.0795 9.3295C6.86853 9.54048 6.75 9.82663 6.75 10.125C6.75 10.4234 6.86853 10.7095 7.0795 10.9205C7.29048 11.1315 7.57663 11.25 7.875 11.25H9C9.29837 11.25 9.58452 11.1315 9.7955 10.9205C10.0065 10.7095 10.125 10.4234 10.125 10.125C10.125 9.82663 10.0065 9.54048 9.7955 9.3295C9.58452 9.11853 9.29837 9 9 9H7.875Z" fill="#5F5F5F"/>
</svg>
