<svg width="18" height="18" viewBox="0 0 18 18" fill="none" xmlns="http://www.w3.org/2000/svg">
<path fill-rule="evenodd" clip-rule="evenodd" d="M10.6763 1.31629C10.2488 -0.438764 7.75121 -0.438764 7.3237 1.31629C7.25987 1.58002 7.13468 1.82495 6.95831 2.03115C6.78194 2.23735 6.55938 2.399 6.30874 2.50294C6.0581 2.60689 5.78646 2.65018 5.51592 2.62931C5.24538 2.60843 4.9836 2.52398 4.75187 2.38282C3.20832 1.4423 1.44201 3.2086 2.38254 4.75215C2.99006 5.74893 2.45117 7.04947 1.31713 7.3251C-0.439045 7.75149 -0.439045 10.2502 1.31713 10.6755C1.58093 10.7394 1.8259 10.8647 2.03211 11.0412C2.23831 11.2177 2.39991 11.4404 2.50375 11.6912C2.6076 11.9419 2.65074 12.2137 2.62968 12.4843C2.60862 12.7549 2.52394 13.0167 2.38254 13.2484C1.44201 14.792 3.20832 16.5583 4.75187 15.6177C4.98356 15.4763 5.24537 15.3917 5.51597 15.3706C5.78658 15.3495 6.05834 15.3927 6.30912 15.4965C6.5599 15.6004 6.7826 15.762 6.95911 15.9682C7.13561 16.1744 7.26091 16.4194 7.32482 16.6831C7.75121 18.4393 10.2499 18.4393 10.6752 16.6831C10.7393 16.4195 10.8647 16.1747 11.0413 15.9686C11.2178 15.7626 11.4405 15.6011 11.6912 15.4973C11.9419 15.3934 12.2135 15.3502 12.4841 15.3712C12.7546 15.3921 13.0164 15.4766 13.2481 15.6177C14.7917 16.5583 16.558 14.792 15.6175 13.2484C15.4763 13.0167 15.3918 12.7549 15.3709 12.4844C15.35 12.2138 15.3932 11.9422 15.497 11.6915C15.6008 11.4408 15.7623 11.2181 15.9683 11.0416C16.1744 10.865 16.4192 10.7396 16.6829 10.6755C18.439 10.2491 18.439 7.75037 16.6829 7.3251C16.4191 7.2612 16.1741 7.13589 15.9679 6.95939C15.7617 6.78288 15.6001 6.56018 15.4962 6.3094C15.3924 6.05862 15.3493 5.78686 15.3703 5.51625C15.3914 5.24565 15.4761 4.98384 15.6175 4.75215C16.558 3.2086 14.7917 1.4423 13.2481 2.38282C13.0164 2.52422 12.7546 2.6089 12.484 2.62996C12.2134 2.65102 11.9417 2.60788 11.6909 2.50404C11.4401 2.40019 11.2174 2.23859 11.0409 2.03239C10.8644 1.82619 10.7391 1.58121 10.6752 1.31742L10.6763 1.31629ZM9 12.3754C9.89513 12.3754 10.7536 12.0198 11.3866 11.3868C12.0195 10.7539 12.3751 9.89542 12.3751 9.00028C12.3751 8.10515 12.0195 7.24668 11.3866 6.61372C10.7536 5.98077 9.89513 5.62518 9 5.62518C8.10487 5.62518 7.2464 5.98077 6.61344 6.61372C5.98049 7.24668 5.62489 8.10515 5.62489 9.00028C5.62489 9.89542 5.98049 10.7539 6.61344 11.3868C7.2464 12.0198 8.10487 12.3754 9 12.3754Z" fill="#5F5F5F"/>
</svg>
