<svg width="18" height="19" viewBox="0 0 18 19" fill="none" xmlns="http://www.w3.org/2000/svg">
<path fill-rule="evenodd" clip-rule="evenodd" d="M3.375 3.37721C3.37501 2.7257 3.5636 2.08812 3.918 1.54143C4.27239 0.994734 4.77745 0.562304 5.3722 0.296332C5.96695 0.03036 6.62597 -0.0577835 7.26971 0.0425409C7.91345 0.142865 8.51439 0.427369 9 0.86171C9.55844 0.361203 10.2677 0.0609406 11.0157 0.00832157C11.7638 -0.0442975 12.5081 0.153724 13.1311 0.571128C13.7541 0.988531 14.2203 1.60154 14.4562 2.31338C14.6921 3.02523 14.6842 3.79536 14.4338 4.50221H15.75C16.3467 4.50221 16.919 4.73926 17.341 5.16122C17.7629 5.58318 18 6.15547 18 6.75221C18 7.34895 17.7629 7.92124 17.341 8.3432C16.919 8.76516 16.3467 9.00221 15.75 9.00221H10.125V7.87721C10.125 7.57884 10.0065 7.2927 9.7955 7.08172C9.58452 6.87074 9.29837 6.75221 9 6.75221C8.70163 6.75221 8.41548 6.87074 8.2045 7.08172C7.99353 7.2927 7.875 7.57884 7.875 7.87721V9.00221H2.25C1.65326 9.00221 1.08097 8.76516 0.65901 8.3432C0.237053 7.92124 0 7.34895 0 6.75221C0 6.15547 0.237053 5.58318 0.65901 5.16122C1.08097 4.73926 1.65326 4.50221 2.25 4.50221H3.56625C3.4425 4.15009 3.375 3.77096 3.375 3.37721ZM7.875 4.50221V3.37721C7.875 3.15471 7.80902 2.9372 7.6854 2.75219C7.56179 2.56719 7.38609 2.42299 7.18052 2.33785C6.97495 2.2527 6.74875 2.23042 6.53052 2.27383C6.31229 2.31724 6.11184 2.42438 5.9545 2.58172C5.79717 2.73905 5.69002 2.93951 5.64662 3.15773C5.60321 3.37596 5.62549 3.60216 5.71064 3.80773C5.79578 4.0133 5.93998 4.189 6.12498 4.31261C6.30999 4.43623 6.5275 4.50221 6.75 4.50221H7.875ZM11.25 4.50221C11.4725 4.50221 11.69 4.43623 11.875 4.31261C12.06 4.189 12.2042 4.0133 12.2894 3.80773C12.3745 3.60216 12.3968 3.37596 12.3534 3.15773C12.31 2.93951 12.2028 2.73905 12.0455 2.58172C11.8882 2.42438 11.6877 2.31724 11.4695 2.27383C11.2512 2.23042 11.025 2.2527 10.8195 2.33785C10.6139 2.42299 10.4382 2.56719 10.3146 2.75219C10.191 2.9372 10.125 3.15471 10.125 3.37721V4.50221H11.25Z" fill="#5F5F5F"/>
<path d="M7.875 10.1272H1.125V15.7522C1.125 16.349 1.36205 16.9212 1.78401 17.3432C2.20597 17.7652 2.77826 18.0022 3.375 18.0022H7.875V10.1272ZM10.125 18.0022H14.625C15.2217 18.0022 15.794 17.7652 16.216 17.3432C16.6379 16.9212 16.875 16.349 16.875 15.7522V10.1272H10.125V18.0022Z" fill="#5F5F5F"/>
</svg>
