<svg width="15" height="20" viewBox="0 0 15 20" fill="none" xmlns="http://www.w3.org/2000/svg">
<path d="M6.25 0C5.91848 0 5.60054 0.131696 5.36612 0.366116C5.1317 0.600537 5 0.918479 5 1.25C5 1.58152 5.1317 1.89946 5.36612 2.13388C5.60054 2.3683 5.91848 2.5 6.25 2.5H8.75C9.08152 2.5 9.39946 2.3683 9.63388 2.13388C9.8683 1.89946 10 1.58152 10 1.25C10 0.918479 9.8683 0.600537 9.63388 0.366116C9.39946 0.131696 9.08152 0 8.75 0H6.25Z" fill="#5F5F5F"/>
<path fill-rule="evenodd" clip-rule="evenodd" d="M0 3.75C0 3.08696 0.263392 2.45107 0.732233 1.98223C1.20107 1.51339 1.83696 1.25 2.5 1.25C2.5 2.24456 2.89509 3.19839 3.59835 3.90165C4.30161 4.60491 5.25544 5 6.25 5H8.75C9.74456 5 10.6984 4.60491 11.4017 3.90165C12.1049 3.19839 12.5 2.24456 12.5 1.25C13.163 1.25 13.7989 1.51339 14.2678 1.98223C14.7366 2.45107 15 3.08696 15 3.75V17.5C15 18.163 14.7366 18.7989 14.2678 19.2678C13.7989 19.7366 13.163 20 12.5 20H2.5C1.83696 20 1.20107 19.7366 0.732233 19.2678C0.263392 18.7989 0 18.163 0 17.5V3.75ZM3.75 8.75C3.41848 8.75 3.10054 8.8817 2.86612 9.11612C2.6317 9.35054 2.5 9.66848 2.5 10C2.5 10.3315 2.6317 10.6495 2.86612 10.8839C3.10054 11.1183 3.41848 11.25 3.75 11.25H3.7625C4.09402 11.25 4.41196 11.1183 4.64638 10.8839C4.8808 10.6495 5.0125 10.3315 5.0125 10C5.0125 9.66848 4.8808 9.35054 4.64638 9.11612C4.41196 8.8817 4.09402 8.75 3.7625 8.75H3.75ZM7.5 8.75C7.16848 8.75 6.85054 8.8817 6.61612 9.11612C6.3817 9.35054 6.25 9.66848 6.25 10C6.25 10.3315 6.3817 10.6495 6.61612 10.8839C6.85054 11.1183 7.16848 11.25 7.5 11.25H11.25C11.5815 11.25 11.8995 11.1183 12.1339 10.8839C12.3683 10.6495 12.5 10.3315 12.5 10C12.5 9.66848 12.3683 9.35054 12.1339 9.11612C11.8995 8.8817 11.5815 8.75 11.25 8.75H7.5ZM3.75 13.75C3.41848 13.75 3.10054 13.8817 2.86612 14.1161C2.6317 14.3505 2.5 14.6685 2.5 15C2.5 15.3315 2.6317 15.6495 2.86612 15.8839C3.10054 16.1183 3.41848 16.25 3.75 16.25H3.7625C4.09402 16.25 4.41196 16.1183 4.64638 15.8839C4.8808 15.6495 5.0125 15.3315 5.0125 15C5.0125 14.6685 4.8808 14.3505 4.64638 14.1161C4.41196 13.8817 4.09402 13.75 3.7625 13.75H3.75ZM7.5 13.75C7.16848 13.75 6.85054 13.8817 6.61612 14.1161C6.3817 14.3505 6.25 14.6685 6.25 15C6.25 15.3315 6.3817 15.6495 6.61612 15.8839C6.85054 16.1183 7.16848 16.25 7.5 16.25H11.25C11.5815 16.25 11.8995 16.1183 12.1339 15.8839C12.3683 15.6495 12.5 15.3315 12.5 15C12.5 14.6685 12.3683 14.3505 12.1339 14.1161C11.8995 13.8817 11.5815 13.75 11.25 13.75H7.5Z" fill="#5F5F5F"/>
</svg>
