<svg width="18" height="24" viewBox="0 0 18 24" fill="none" xmlns="http://www.w3.org/2000/svg">
<path fill-rule="evenodd" clip-rule="evenodd" d="M0 3C0 2.20435 0.31607 1.44129 0.87868 0.87868C1.44129 0.31607 2.20435 0 3 0H9.879C10.6746 0.000169912 11.4375 0.316352 12 0.879L17.121 6C17.6836 6.56248 17.9998 7.32542 18 8.121V21C18 21.7956 17.6839 22.5587 17.1213 23.1213C16.5587 23.6839 15.7956 24 15 24H3C2.20435 24 1.44129 23.6839 0.87868 23.1213C0.31607 22.5587 0 21.7956 0 21V3ZM3 12C3 11.6022 3.15804 11.2206 3.43934 10.9393C3.72064 10.658 4.10218 10.5 4.5 10.5H13.5C13.8978 10.5 14.2794 10.658 14.5607 10.9393C14.842 11.2206 15 11.6022 15 12C15 12.3978 14.842 12.7794 14.5607 13.0607C14.2794 13.342 13.8978 13.5 13.5 13.5H4.5C4.10218 13.5 3.72064 13.342 3.43934 13.0607C3.15804 12.7794 3 12.3978 3 12ZM4.5 16.5C4.10218 16.5 3.72064 16.658 3.43934 16.9393C3.15804 17.2206 3 17.6022 3 18C3 18.3978 3.15804 18.7794 3.43934 19.0607C3.72064 19.342 4.10218 19.5 4.5 19.5H13.5C13.8978 19.5 14.2794 19.342 14.5607 19.0607C14.842 18.7794 15 18.3978 15 18C15 17.6022 14.842 17.2206 14.5607 16.9393C14.2794 16.658 13.8978 16.5 13.5 16.5H4.5Z" fill="#4C6FFF"/>
</svg>
